<svg width="151" height="85" viewBox="0 0 151 85" fill="none" xmlns="http://www.w3.org/2000/svg">
<path d="M4.60059 42.7374C6.98037 42.7374 8.90956 40.8439 8.90956 38.5081C8.90956 36.1723 6.98037 34.2788 4.60059 34.2788C2.22082 34.2788 0.291626 36.1723 0.291626 38.5081C0.291626 40.8439 2.22082 42.7374 4.60059 42.7374Z" fill="#A6E51C"/>
<path d="M84.0164 57.5542C86.3846 57.5542 88.3044 55.6699 88.3044 53.3454C88.3044 51.021 86.3846 49.1367 84.0164 49.1367C81.6482 49.1367 79.7284 51.021 79.7284 53.3454C79.7284 55.6699 81.6482 57.5542 84.0164 57.5542Z" fill="#FF7C16"/>
<path d="M144.242 31.5407C146.638 31.5407 148.581 29.6425 148.581 27.3011C148.581 24.9596 146.638 23.0615 144.242 23.0615C141.845 23.0615 139.903 24.9596 139.903 27.3011C139.903 29.6425 141.845 31.5407 144.242 31.5407Z" fill="#F016B4"/>
<path d="M55.2096 80.5323C55.1757 80.6231 55.1148 80.7018 55.0347 80.7581C54.9546 80.8144 54.8591 80.8458 54.7606 80.8482H51.7074C51.6171 80.8511 51.5291 80.8201 51.4615 80.7613C51.3938 80.7026 51.3517 80.6206 51.3437 80.5323L49.4504 70.8824V70.8192C49.4458 70.7746 49.4507 70.7295 49.4648 70.6868C49.4789 70.6441 49.5019 70.6047 49.5323 70.5712C49.5627 70.5376 49.5998 70.5106 49.6413 70.4919C49.6829 70.4731 49.7279 70.463 49.7737 70.4622H51.4859C51.7074 70.4622 51.7852 70.5621 51.8286 70.756L53.1756 79.3586H53.6995L56.9623 70.756C56.9881 70.667 57.0441 70.5892 57.1212 70.5358C57.1983 70.4823 57.2916 70.4564 57.3858 70.4622H59.1609C59.196 70.4596 59.2312 70.4644 59.2642 70.4764C59.2972 70.4884 59.3272 70.5072 59.3521 70.5317C59.377 70.5561 59.3962 70.5855 59.4084 70.6179C59.4206 70.6503 59.4255 70.6849 59.4228 70.7193C59.4259 70.7599 59.4192 70.8007 59.4034 70.8383L55.2096 80.5323Z" fill="white"/>
<path d="M122.561 77.0158H122.461V77.2538C122.461 77.3125 122.44 77.3522 122.44 77.3919C122.44 78.2424 122.723 78.7757 123.287 79.1121C123.811 79.4059 124.536 79.5263 125.402 79.5263C126.471 79.5263 127.578 79.2325 128.364 79.0327C128.395 79.0173 128.43 79.0107 128.464 79.0136C128.566 79.0136 128.647 79.0724 128.687 79.2502L128.848 80.18V80.2388C128.848 80.3108 128.822 80.3804 128.773 80.4346C128.725 80.4887 128.658 80.5236 128.586 80.5326C127.346 80.9425 126.047 81.1495 124.739 81.1452C120.848 81.1452 120.167 79.1473 120.167 76.8527C120.167 74.7374 120.851 72.622 121.737 71.6524C122.665 70.6447 124.075 70.248 125.766 70.248C128.144 70.248 129.937 70.8812 129.937 73.5122C129.937 76.7749 127.339 77.0114 122.563 77.0114M125.565 71.8302C123.229 71.8302 122.746 73.6488 122.603 75.5482C125.968 75.3499 127.701 75.5482 127.701 73.6091C127.701 72.3252 126.834 71.8302 125.565 71.8302Z" fill="white"/>
<path d="M51.896 16.7789C54.2758 16.7789 56.205 14.8854 56.205 12.5496C56.205 10.2138 54.2758 8.32031 51.896 8.32031C49.5162 8.32031 47.587 10.2138 47.587 12.5496C47.587 14.8854 49.5162 16.7789 51.896 16.7789Z" fill="#00B8FF"/>
<path d="M35.8081 76.7554C34.6586 79.9388 32.442 80.8481 28.7557 80.8481H22.974C22.9367 80.8491 22.8996 80.8427 22.8649 80.8292C22.8302 80.8156 22.7987 80.7954 22.7722 80.7695C22.7458 80.7437 22.7249 80.7129 22.711 80.6789C22.697 80.6449 22.6903 80.6085 22.6911 80.5719V80.5323L24.4437 66.559C24.4556 66.4723 24.4989 66.3926 24.5656 66.3346C24.6324 66.2766 24.7183 66.2442 24.8074 66.2432H30.5891C32.7653 66.2432 34.3309 66.559 35.3441 67.4683C36.2107 68.2601 36.6732 69.4662 36.6732 71.3054C36.6732 72.9654 36.3738 75.2012 35.8081 76.7628M33.5301 69.071C32.8851 68.2396 31.7341 68.0618 30.0653 68.0618H26.7007L25.3313 79.0368H28.6958C31.315 79.0177 32.7848 78.5226 33.5705 75.8329C33.9577 74.4412 34.154 73.0051 34.1542 71.5625C34.1542 70.3961 33.9537 69.6043 33.5301 69.0651" fill="white"/>
<path d="M40.5422 76.9728H40.4419V77.2108C40.4419 77.2696 40.4209 77.3092 40.4209 77.3489C40.4209 78.1994 40.7038 78.7327 41.2681 79.0691C41.7919 79.3629 42.5163 79.4834 43.3829 79.4834C44.4515 79.4834 45.5591 79.1896 46.3448 78.9898C46.3758 78.9743 46.4105 78.9677 46.4451 78.9707C46.5469 78.9707 46.6277 79.0294 46.6681 79.2072L46.8283 80.1371V80.1958C46.8288 80.2678 46.8025 80.3374 46.7542 80.3916C46.7059 80.4458 46.6391 80.4806 46.5663 80.4896C45.3271 80.8996 44.0276 81.1065 42.7198 81.1022C38.8285 81.1022 38.1475 79.1044 38.1475 76.8098C38.1475 74.6944 38.8314 72.579 39.7175 71.6095C40.6454 70.6017 42.0553 70.2051 43.7466 70.2051C46.1248 70.2051 47.9178 70.8382 47.9178 73.4692C47.9178 76.7319 45.3196 76.9684 40.5437 76.9684M43.546 71.7872C41.2097 71.7872 40.7263 73.6058 40.5841 75.5053C43.9486 75.307 45.6818 75.5053 45.6818 73.5662C45.6818 72.2823 44.8152 71.7872 43.546 71.7872Z" fill="white"/>
<path d="M62.3668 76.9728H62.265V77.2108C62.265 77.2696 62.2456 77.3092 62.2456 77.3489C62.2456 78.1994 62.527 78.7327 63.0912 79.0691C63.6151 79.3629 64.3409 79.4834 65.2075 79.4834C66.2747 79.4834 67.3822 79.1896 68.168 78.9898C68.1995 78.9743 68.2347 78.9677 68.2698 78.9707C68.37 78.9707 68.4509 79.0294 68.4913 79.2072L68.6514 80.1371V80.1958C68.652 80.2676 68.6259 80.337 68.5779 80.3912C68.53 80.4453 68.4635 80.4803 68.391 80.4896C67.1512 80.8996 65.8512 81.1066 64.543 81.1022C60.6516 81.1022 59.9691 79.1044 59.9691 76.8098C59.9691 74.6944 60.6546 72.579 61.5406 71.6095C62.4671 70.6017 63.877 70.2051 65.5697 70.2051C67.9465 70.2051 69.741 70.8382 69.741 73.4692C69.741 76.7319 67.1413 76.9684 62.3668 76.9684M65.3602 71.7872C63.0239 71.7872 62.5404 73.6058 62.3997 75.5053C65.7643 75.307 67.4885 75.5053 67.4885 73.5662C67.4885 72.2823 66.6219 71.7872 65.3527 71.7872" fill="white"/>
<path d="M75.4629 80.4929C75.4626 80.5536 75.4432 80.6128 75.4073 80.6623C75.3714 80.7117 75.3207 80.749 75.2623 80.7691C74.7191 80.957 74.1452 81.0447 73.5695 81.0276C72.8212 81.0276 72.2809 80.869 71.8977 80.5135C71.555 80.2197 71.3739 79.7613 71.3739 79.1679C71.3902 78.6646 71.4372 78.1628 71.5146 77.665L72.905 66.6313C72.903 66.5448 72.9358 66.4609 72.9963 66.398C73.0568 66.335 73.1402 66.298 73.2283 66.2949L74.9196 65.9776H75.0004C75.0315 65.977 75.0623 65.9829 75.0909 65.9949C75.1194 66.007 75.1451 66.0248 75.166 66.0474C75.187 66.0699 75.2028 66.0965 75.2124 66.1255C75.2221 66.1545 75.2253 66.1852 75.2219 66.2156V66.2758L73.7911 77.6254C73.7367 77.9792 73.7032 78.3358 73.6908 78.6934C73.6852 78.8622 73.7345 79.0283 73.8315 79.1679C74.0008 79.3014 74.213 79.3717 74.4301 79.3662C74.6676 79.3692 74.9045 79.3425 75.1351 79.2868H75.2159C75.3162 79.2868 75.3775 79.3265 75.397 79.4646L75.4569 80.4532L75.4629 80.4929Z" fill="white"/>
<path d="M86.8872 77.3302C86.3409 79.5235 85.1151 81.1027 81.5889 81.1027C79.8557 81.1027 78.7886 80.7251 78.1465 80.0744C77.4625 79.4016 77.2395 78.4335 77.2395 77.3067C77.2467 76.1086 77.4081 74.9161 77.7199 73.7576C78.3051 71.6819 79.5743 70.2188 82.9584 70.2188C84.7319 70.2188 85.82 70.6139 86.4651 71.2853C87.1102 71.9566 87.3107 72.9276 87.3107 74.0543C87.2917 75.1606 87.1497 76.2616 86.8872 77.3376M84.5703 72.4326C84.2485 72.0374 83.6842 71.8449 82.7563 71.8449C80.9438 71.8449 80.3197 72.6162 79.9979 73.9809C79.7376 75.1105 79.5957 76.2633 79.5743 77.4213C79.5743 78.1338 79.6956 78.6861 80.0982 79.0372C80.4409 79.331 80.9648 79.4912 81.7909 79.4912C83.7845 79.4912 84.3488 78.5627 84.6511 76.9013C84.7918 76.0316 84.9729 74.8843 84.9729 74.0338C84.9729 73.3419 84.8936 72.8086 84.5703 72.4326Z" fill="white"/>
<path d="M98.4535 77.9424C97.8084 79.9578 96.4793 81.1022 93.6985 81.1022C92.7263 81.1083 91.7575 80.9883 90.8174 80.7452L90.8982 81.9307L90.5988 84.3252C90.5965 84.4156 90.5603 84.5019 90.497 84.5675C90.4337 84.6332 90.3479 84.6735 90.2561 84.6807L88.5858 85.001H88.505C88.4726 85.0039 88.4399 84.9998 88.4093 84.9889C88.3787 84.9781 88.351 84.9608 88.3279 84.9382C88.3049 84.9156 88.2873 84.8883 88.2762 84.8583C88.2652 84.8283 88.261 84.7962 88.264 84.7644C88.2627 84.7536 88.2637 84.7427 88.2671 84.7323C88.2704 84.7219 88.276 84.7123 88.2835 84.7042L89.8146 72.4247C89.9358 71.4758 90.1977 71.1584 91.184 70.8426C92.5142 70.4297 93.9004 70.2167 95.2955 70.2109C96.7652 70.2109 97.6902 70.5459 98.2769 71.1585C98.901 71.8122 99.0821 72.742 99.0821 73.9863C99.0764 75.3282 98.8661 76.6616 98.458 77.9424M96.3416 72.4042C95.9794 71.9502 95.3957 71.8709 94.5696 71.8709C93.5608 71.8709 92.112 72.247 92.112 72.247L91.2454 79.2277C91.9676 79.4208 92.7136 79.5137 93.462 79.5039C95.0724 79.5039 95.8792 78.9707 96.3222 77.1902C96.5777 76.2011 96.7128 75.1858 96.7248 74.1655C96.7248 73.2944 96.6051 72.7611 96.3416 72.4027" fill="white"/>
<path d="M117.622 73.7895L116.776 80.5469C116.773 80.5885 116.763 80.6291 116.744 80.6664C116.725 80.7038 116.699 80.7371 116.667 80.7644C116.635 80.7918 116.598 80.8126 116.558 80.8257C116.518 80.8388 116.475 80.8439 116.433 80.8407H114.778C114.741 80.8456 114.704 80.8425 114.669 80.8315C114.634 80.8206 114.602 80.8022 114.575 80.7776C114.548 80.753 114.527 80.7228 114.514 80.6893C114.5 80.6558 114.494 80.6197 114.496 80.5837V80.544L115.342 73.8218C115.363 73.5633 115.403 73.2871 115.403 73.03C115.403 72.6348 115.323 72.3572 115.121 72.1604C114.88 71.9224 114.476 71.824 113.892 71.824C112.865 71.8492 111.845 71.9886 110.851 72.2397L109.803 80.544C109.799 80.6247 109.764 80.7007 109.703 80.7557C109.643 80.8107 109.563 80.8402 109.481 80.8378H107.803C107.767 80.8411 107.731 80.8369 107.696 80.8254C107.662 80.814 107.63 80.7955 107.603 80.7712C107.577 80.747 107.556 80.7175 107.541 80.6847C107.527 80.6518 107.52 80.6164 107.52 80.5807V80.5411L108.387 73.6999C108.408 73.4825 108.448 73.2592 108.448 73.0271C108.448 72.6128 108.368 72.3352 108.165 72.1383C107.923 71.9194 107.541 71.821 106.958 71.821C105.917 71.8482 104.884 71.9876 103.874 72.2367L102.827 80.5411C102.823 80.6216 102.787 80.6974 102.727 80.7523C102.667 80.8073 102.587 80.8369 102.505 80.8349H100.832C100.795 80.8395 100.758 80.8361 100.723 80.8251C100.688 80.8141 100.656 80.7956 100.63 80.7711C100.603 80.7466 100.582 80.7165 100.568 80.6831C100.554 80.6497 100.548 80.6137 100.55 80.5778V80.5381L101.598 72.1354C101.698 71.3641 101.981 71.0865 103.11 70.7501C104.493 70.4064 105.912 70.2211 107.339 70.1978C108.608 70.1978 109.475 70.4534 109.959 70.9088C110.785 70.6149 112.84 70.1978 114.33 70.1978C115.619 70.1978 116.566 70.3755 117.131 70.8897C117.533 71.2452 117.729 71.7711 117.729 72.5305C117.719 72.9481 117.679 73.3644 117.608 73.7763" fill="white"/>
<path d="M148.284 50.7835L136.884 40.4196L147.127 30.4435C146.618 30.8499 146.02 31.1367 145.381 31.2823H145.363L145.203 31.3147L145.143 31.3249L145.013 31.3455L144.914 31.3573L144.813 31.369L144.674 31.3793H144.605C144.535 31.3793 144.465 31.3793 144.393 31.3793C143.547 31.3804 142.72 31.1375 142.013 30.6808C141.307 30.2241 140.753 29.5738 140.42 28.8106C140.088 28.0475 139.991 27.2051 140.141 26.3883C140.292 25.5715 140.685 24.8162 141.269 24.2164L128.562 36.5561V12.692C128.562 11.5816 128.113 10.5167 127.313 9.73156C126.513 8.94641 125.428 8.50531 124.297 8.50531C123.166 8.50531 122.081 8.94641 121.281 9.73156C120.481 10.5167 120.031 11.5816 120.031 12.692V46.2016C120.002 47.1757 119.58 48.0985 118.858 48.7671C118.136 49.4357 117.173 49.7954 116.18 49.7669C115.188 49.7385 114.248 49.3243 113.567 48.6154C112.885 47.9066 112.519 46.9612 112.548 45.9872V41.5023C112.548 32.3018 105.364 25.0949 96.1815 25.0949C92.2458 25.0688 88.4308 26.4274 85.4278 28.9246C84.2654 27.5786 82.8184 26.4972 81.1872 25.7554C79.5561 25.0136 77.7799 24.6293 75.9822 24.6292C69.1723 24.6292 63.6061 30.0645 63.6061 36.7515V45.8594C63.6061 46.8334 63.2119 47.7675 62.5102 48.4562C61.8085 49.145 60.8568 49.5319 59.8644 49.5319C58.872 49.5319 57.9203 49.145 57.2186 48.4562C56.5169 47.7675 56.1227 46.8334 56.1227 45.8594V29.3491C56.1227 28.2388 55.6733 27.1739 54.8733 26.3887C54.0734 25.6035 52.9884 25.1624 51.8571 25.1624C50.7258 25.1624 49.6408 25.6035 48.8409 26.3887C48.0409 27.1739 47.5915 28.2388 47.5915 29.3491V39.8849C47.5915 44.2273 46.3942 49.5319 39.7758 49.5319C33.2982 49.5319 31.2657 44.2728 31.2657 39.8849V27.2279C36.8723 23.1543 42.1077 18.5005 43.7031 14.2021C45.3959 9.72606 44.6326 5.22207 41.7096 2.44269C39.0425 -0.0928209 35.178 -0.695116 31.3824 0.826781C23.5158 3.98369 22.7974 14.7134 22.742 15.9253C22.742 15.9752 22.742 16.0237 22.742 16.0722C22.742 16.3557 22.7106 19.141 22.6866 22.8297C21.3965 23.7008 3.75652 34.141 2.4978 34.808C3.51037 34.3463 4.666 34.2883 5.72122 34.6464C6.77644 35.0045 7.64887 35.7506 8.15469 36.7275C8.66052 37.7044 8.76025 38.836 8.43287 39.8836C8.10549 40.9313 7.37657 41.8134 6.39967 42.344C7.24829 41.9033 14.6554 38.0134 22.6597 32.9835C22.6597 35.967 22.6597 41.611 22.6597 41.611C22.6881 50.6351 30.2793 57.9684 39.4795 57.9684C43.3709 57.9684 47.2234 56.3202 50.2796 53.3939C51.8762 55.3541 54.0532 56.7798 56.5102 57.4743C58.9673 58.1688 61.5833 58.0978 63.9976 57.2713C66.4118 56.4447 68.5053 54.9032 69.9892 52.8595C71.4731 50.8158 72.2744 48.3704 72.2824 45.8608V36.753C72.2804 35.7803 72.6722 34.8467 73.3715 34.1576C74.0708 33.4684 75.0204 33.0802 76.0114 33.0782C77.0024 33.0763 77.9536 33.4608 78.6557 34.1472C79.3578 34.8336 79.7534 35.7656 79.7554 36.7383V53.0605C79.8597 52.076 80.314 51.1591 81.0385 50.4706C81.7629 49.7821 82.7113 49.366 83.7171 49.2954C83.8044 49.2831 83.8924 49.2767 83.9805 49.2763C84.2757 49.2764 84.57 49.306 84.8591 49.3644C85.812 49.5528 86.6716 50.0532 87.297 50.7836C87.9224 51.5141 88.2765 52.4313 88.3015 53.3851L88.3434 40.6899C88.6233 36.5767 91.9354 33.5461 96.2175 33.5461C100.568 33.5461 104.012 37.0394 104.012 41.5023V45.993C104.008 49.2032 105.303 52.2834 107.613 54.5566C109.922 56.8298 113.056 58.1099 116.327 58.1153C123.137 58.1153 128.558 52.68 128.558 45.993V44.4315L142.398 56.9827C143.235 57.7489 144.349 58.1571 145.493 58.1176C146.637 58.078 147.718 57.594 148.499 56.7719C149.28 55.9498 149.696 54.8571 149.655 53.734C149.615 52.611 149.122 51.5496 148.284 50.7835ZM31.3345 16.2617C31.4722 13.9759 32.5633 9.48514 34.6272 8.65515C35.2184 8.41717 35.5971 8.47446 35.7123 8.50825C36.0835 8.63458 36.4607 9.49102 35.621 11.2641C35.6151 11.2765 35.6101 11.2893 35.6061 11.3023C35.389 11.8899 34.488 13.7277 31.33 16.297C31.3308 16.2846 31.3323 16.2724 31.3345 16.2602V16.2617Z" fill="white"/>
<path d="M141.4 73.8515L140.555 80.5943C140.551 80.6751 140.515 80.7512 140.454 80.8061C140.394 80.8611 140.314 80.8905 140.231 80.8881H138.559C138.523 80.8929 138.486 80.8898 138.451 80.8788C138.416 80.8679 138.383 80.8495 138.356 80.825C138.329 80.8004 138.308 80.7703 138.294 80.7368C138.281 80.7032 138.274 80.6671 138.277 80.631V80.5914L139.124 73.8486C139.171 73.5742 139.198 73.2968 139.205 73.0186C139.214 72.8718 139.194 72.7245 139.146 72.5853C139.097 72.4461 139.021 72.3178 138.922 72.2077C138.681 71.9697 138.298 71.8713 137.714 71.8713C136.687 71.8966 135.666 72.0361 134.671 72.287L133.623 80.5914C133.619 80.6719 133.584 80.7477 133.524 80.8026C133.463 80.8576 133.384 80.8872 133.302 80.8852H131.624C131.587 80.8897 131.55 80.8864 131.516 80.8754C131.481 80.8644 131.449 80.8459 131.422 80.8214C131.395 80.7969 131.374 80.7668 131.36 80.7334C131.346 80.7 131.34 80.664 131.342 80.6281V80.5884L132.39 72.1857C132.49 71.4144 132.773 71.1368 133.902 70.8004C135.279 70.4566 136.691 70.2712 138.112 70.248C139.381 70.248 140.308 70.4258 140.872 70.9003C141.295 71.2558 141.517 71.7699 141.517 72.5162C141.506 72.959 141.466 73.4007 141.396 73.8383" fill="white"/>
<path d="M149.964 71.8903C149.956 71.9728 149.917 72.0491 149.853 72.1038C149.79 72.1584 149.707 72.1871 149.623 72.1841H146.561L145.854 77.7208C145.835 77.9779 145.795 78.235 145.795 78.4715C145.781 78.7029 145.86 78.9304 146.016 79.1047C146.217 79.3221 146.601 79.4205 147.145 79.4205C147.708 79.4033 148.268 79.3304 148.816 79.2031H148.897C149.018 79.2031 149.078 79.2824 149.099 79.4014L149.2 80.3695V80.4106C149.195 80.4835 149.167 80.5532 149.12 80.6098C149.073 80.6665 149.009 80.7073 148.938 80.7264C148.11 80.9609 147.254 81.0811 146.393 81.0834C145.286 81.0834 144.519 80.866 144.036 80.3709C143.693 79.9949 143.512 79.4807 143.512 78.7888C143.511 78.4125 143.531 78.0363 143.572 77.6621L144.822 67.6728C144.828 67.5823 144.869 67.4976 144.936 67.4351C145.003 67.3726 145.091 67.3369 145.184 67.3349L146.856 67H146.937C147.098 67 147.158 67.0984 147.158 67.238V67.2953L146.755 70.4992H149.818C149.854 70.4961 149.89 70.5005 149.924 70.512C149.959 70.5236 149.99 70.5421 150.017 70.5663C150.043 70.5906 150.064 70.62 150.078 70.6527C150.093 70.6854 150.1 70.7207 150.099 70.7563V70.7959L149.964 71.8903Z" fill="white"/>
</svg>
