<svg width="41" height="37" viewBox="0 0 41 37" fill="none" xmlns="http://www.w3.org/2000/svg">
<path d="M33.4805 12.2766C37.6993 13.6829 40.8243 16.0266 40.8243 18.3704C40.8243 20.8704 37.543 23.2922 33.0118 24.7766C32.7774 24.8547 32.543 24.9329 32.3087 25.011C32.3868 25.3235 32.4649 25.7141 32.543 26.0266C33.4024 30.5579 32.6993 34.2297 30.5899 35.4797C28.5587 36.6516 25.2774 35.4797 21.918 32.5891C21.5274 32.2766 21.2149 31.9641 20.8243 31.6516C20.5899 31.886 20.2774 32.1204 20.043 32.3547C16.6055 35.4016 13.0118 36.6516 10.9024 35.4016C8.87115 34.2297 8.24615 30.7922 9.0274 26.4954C9.18365 26.0266 9.26178 25.5579 9.3399 25.0891C9.0274 25.011 8.63678 24.8547 8.32428 24.7766C3.94928 23.2922 0.82428 20.7922 0.82428 18.3704C0.82428 16.0266 3.79303 13.761 7.93365 12.2766C8.4024 12.1204 8.87115 11.9641 9.41803 11.8079C9.26178 11.4172 9.18365 10.9485 9.10553 10.5579C8.24615 6.10474 8.87115 2.58911 10.9024 1.41724C13.0118 0.167236 16.6055 1.49536 20.1993 4.62036C20.3555 4.85474 20.5899 5.01099 20.8243 5.24536C21.1368 4.93286 21.4493 4.62036 21.7618 4.38599C25.1993 1.41724 28.5587 0.167236 30.5899 1.33911C32.6993 2.58911 33.3243 6.33911 32.3868 10.9485C32.3087 11.261 32.2305 11.5735 32.2305 11.886C32.6212 11.9641 33.0118 12.1204 33.4805 12.2766ZM22.8555 5.63599C22.543 5.87036 22.3087 6.18286 21.9962 6.41724C23.168 7.74536 24.2618 9.15161 25.2774 10.636C27.0743 10.7922 28.793 11.0266 30.5899 11.4172C30.668 11.1829 30.668 10.9485 30.7462 10.636C31.6055 6.65161 31.0587 3.52661 29.7305 2.82349C28.4805 2.12036 25.8243 3.05786 22.8555 5.63599ZM13.8712 22.4329C13.4805 21.7297 13.0899 21.1047 12.6993 20.4016C12.2305 21.5735 11.8399 22.7454 11.4493 23.8391C12.6212 24.1516 13.8712 24.3079 15.1212 24.4641C14.6524 23.761 14.2618 23.136 13.8712 22.4329ZM11.4493 13.0579C11.8399 14.1516 12.2305 15.2454 12.6993 16.4172C13.0899 15.7141 13.4805 15.0891 13.8712 14.386C14.2618 13.761 14.6524 13.0579 15.043 12.4329C13.793 12.5891 12.6212 12.7454 11.4493 13.0579ZM13.6368 18.4485C14.1837 19.4641 14.7305 20.5579 15.2774 21.5735C15.9024 22.5891 16.5274 23.6047 17.2305 24.6204C18.4024 24.6985 19.5743 24.7766 20.8243 24.7766C21.9962 24.7766 23.2462 24.6985 24.418 24.6204C25.043 23.6047 25.668 22.5891 26.293 21.5735C26.918 20.5579 27.4649 19.4641 27.9337 18.3704C27.4649 17.2766 26.8399 16.261 26.293 15.2454C25.668 14.2297 25.043 13.2141 24.3399 12.1985C23.2462 12.1204 21.9962 12.0422 20.8243 12.0422C19.5743 12.0422 18.4024 12.1204 17.2305 12.1985C16.5274 13.2141 15.9024 14.2297 15.2774 15.2454C14.7305 16.261 14.1055 17.3547 13.6368 18.4485ZM27.6993 22.4329C27.3087 23.0579 26.918 23.761 26.5274 24.386C27.7774 24.3079 28.9493 24.0735 30.1993 23.761C29.8087 22.5891 29.3399 21.4954 28.8712 20.3235C28.4805 21.0266 28.168 21.7297 27.6993 22.4329ZM28.8712 16.4172C29.3399 15.3235 29.7305 14.2297 30.1212 13.0579C29.0274 12.8235 27.7774 12.5891 26.5274 12.4329C26.918 13.0579 27.3087 13.761 27.6993 14.386C28.0899 15.0891 28.4805 15.7141 28.8712 16.4172ZM20.8243 7.66724C20.043 8.52661 19.2618 9.46411 18.4805 10.4797C20.043 10.4016 21.6055 10.4016 23.0899 10.4797C22.3868 9.46411 21.6055 8.52661 20.8243 7.66724ZM11.7618 2.82349C10.5118 3.60474 10.043 6.41724 10.7462 10.1672C10.8243 10.636 10.9024 11.0266 11.0587 11.4172C12.7774 11.0266 14.4962 10.7922 16.293 10.636C17.3087 9.15161 18.4024 7.74536 19.6524 6.41724C19.418 6.26099 19.2618 6.10474 19.0274 5.87036C15.9805 3.21411 13.0899 2.12036 11.7618 2.82349ZM9.80865 23.4485C10.3555 21.7297 10.9805 20.011 11.7618 18.4485C11.0587 16.8079 10.3555 15.1672 9.88678 13.4485C9.41803 13.6047 8.94928 13.6829 8.48053 13.8391C4.9649 15.0891 2.4649 16.9641 2.4649 18.3704C2.62115 19.3079 3.16803 20.1672 3.94928 20.7141C5.2774 21.8079 7.23053 22.5891 8.87115 23.136C9.18365 23.2922 9.49615 23.3704 9.80865 23.4485ZM18.9493 31.1047C19.1837 30.8704 19.418 30.636 19.6524 30.4016C18.4805 29.0735 17.3087 27.6672 16.293 26.261C14.4962 26.1047 12.7774 25.8704 10.9805 25.4797C10.9024 25.8704 10.8243 26.3391 10.7462 26.8079C10.043 30.4797 10.5118 33.2141 11.7618 33.9954C12.6993 34.3079 13.6368 34.3079 14.4962 33.8391C16.1368 33.2141 17.6212 32.2766 18.9493 31.1047ZM20.8243 29.2297C21.6837 28.2922 22.4649 27.3547 23.168 26.3391C22.3868 26.4172 21.6055 26.4172 20.8243 26.4172C20.043 26.4172 19.2618 26.4172 18.4805 26.3391C19.2618 27.4329 20.043 28.3704 20.8243 29.2297ZM31.0587 31.5735C31.293 29.8547 31.2149 28.0579 30.9024 26.3391C30.8243 26.0266 30.7462 25.7141 30.668 25.4016C28.8712 25.7922 27.1524 26.1047 25.3555 26.261C24.3399 27.7454 23.2462 29.0735 21.9962 30.4016C22.3868 30.7141 22.6993 31.0266 23.0118 31.3391C25.9024 33.761 28.5587 34.6985 29.8087 33.9954C30.5118 33.3704 30.9805 32.511 31.0587 31.5735ZM32.4649 23.136C36.3712 21.886 39.1055 19.8547 39.1055 18.3704C39.1055 16.9641 36.5274 15.0891 32.9337 13.8391C32.543 13.6829 32.1524 13.6047 31.7618 13.4485C31.2149 15.1672 30.5899 16.8079 29.8087 18.3704C30.5899 20.011 31.293 21.6516 31.8399 23.3704C32.0743 23.2922 32.2305 23.2141 32.4649 23.136ZM20.8243 21.9641C18.793 21.9641 17.2305 20.4016 17.2305 18.3704C17.2305 16.4172 18.793 14.8547 20.8243 14.8547C22.7774 14.8547 24.3399 16.4172 24.3399 18.3704C24.3399 20.4016 22.7774 21.9641 20.8243 21.9641Z" fill="#FD6F00"/>
</svg>
